<svg width="48" height="48" viewBox="0 0 48 48" fill="none" xmlns="http://www.w3.org/2000/svg">
  <path d="M44.5 24.55C44.5 23 44.36 21.51 44.1 20.09H24V28.33H35.49C34.99 30.99 33.47 33.24 31.19 34.75V40.1H38.08C42.11 36.39 44.5 30.92 44.5 24.55Z" fill="#4285F4"/>
  <path d="M24 45C29.43 45 33.98 43.2 38.08 40.1L31.19 34.75C29.39 35.96 27.05 36.68 24 36.68C18.77 36.68 14.34 33.15 12.77 28.4H5.67V33.91C9.75 40.99 16.43 45 24 45Z" fill="#34A853"/>
  <path d="M12.77 28.4C12.37 27.19 12.14 25.9 12.14 24.55C12.14 23.2 12.37 21.91 12.77 20.7V15.19H5.67C3.99 18.49 3 22.21 3 24.55C3 26.89 3.99 30.61 5.67 33.91L12.77 28.4Z" fill="#FBBC05"/>
  <path d="M24 12.41C27.33 12.41 30.31 13.56 32.66 15.79L38.23 10.22C33.97 6.25 29.43 4 24 4C16.43 4 9.75 8.01 5.67 15.19L12.77 20.7C14.34 15.95 18.77 12.41 24 12.41Z" fill="#EA4335"/>
</svg>